<svg width="825" height="100" viewBox="0 0 825 100" fill="none" xmlns="http://www.w3.org/2000/svg">
<path d="M26.8647 68.36C12.3047 68.36 1.66469 61 1.66469 48.12C1.66469 46.44 1.82469 44.6 2.22469 42.68C5.02469 28.84 17.5047 21 31.6647 21C46.1447 21 56.8647 28.36 56.8647 41.16C56.8647 42.84 56.6247 44.68 56.2247 46.6C53.4247 60.52 40.9447 68.36 26.8647 68.36ZM27.4247 57.4C33.2647 57.4 38.6247 53.72 40.3847 45.32C40.7047 43.96 40.7847 42.68 40.7847 41.48C40.7847 35.4 37.1047 32.04 31.1047 32.04C25.2647 32.04 19.8247 35.64 18.0647 44.12C17.7447 45.48 17.6647 46.76 17.6647 47.96C17.6647 54.04 21.3447 57.4 27.4247 57.4ZM75.4753 68.04C65.4753 68.04 58.9953 61.72 58.9953 53.16C58.9953 51.88 59.0753 50.6 59.3953 49.24L65.1553 22.36H81.5553L76.1153 47.8C75.9553 48.6 75.8753 49.32 75.8753 50.04C75.8753 54.28 78.6753 56.84 83.6353 56.84C86.9153 56.84 90.1953 55.4 92.4353 53.24L98.9953 22.36H115.395L106.035 67H89.5553L90.5953 61.96C86.5153 65.8 81.3153 68.04 75.4753 68.04ZM111.192 67L120.712 22.36H137.112L135.592 29.48C139.832 24.36 145.192 21.48 152.232 21.48C152.952 21.48 153.672 21.48 154.392 21.56L151.592 35.08C149.752 34.52 147.752 34.28 145.672 34.28C141.032 34.28 136.472 35.8 133.592 38.84L127.672 67H111.192ZM170.163 68.04C158.323 68.04 150.723 60.36 150.723 49C150.723 47.08 150.963 45.08 151.363 43C154.243 29.64 164.323 21.32 176.643 21.32C184.243 21.32 189.923 24.6 192.803 30.2L196.883 11H213.363L201.443 67H184.963L186.083 61.64C181.763 65.8 176.243 68.04 170.163 68.04ZM176.723 57.4C183.043 57.4 188.083 53.16 189.763 45.32C190.003 43.96 190.163 42.68 190.163 41.56C190.163 35.4 186.563 32.04 180.323 32.04C174.003 32.04 169.043 36.2 167.363 44.12C167.043 45.56 166.963 46.84 166.963 48.04C166.963 54.04 170.483 57.4 176.723 57.4ZM206.582 67L216.102 22.36H232.502L230.982 29.48C235.222 24.36 240.582 21.48 247.622 21.48C248.342 21.48 249.062 21.48 249.782 21.56L246.982 35.08C245.142 34.52 243.142 34.28 241.062 34.28C236.422 34.28 231.862 35.8 228.982 38.84L223.062 67H206.582ZM270.354 68.36C255.874 68.36 246.274 60.12 246.274 47.88C246.274 46.36 246.434 44.68 246.754 43C249.474 29.56 261.154 21 275.954 21C290.034 21 299.874 28.76 299.874 40.84C299.874 42.84 299.634 44.6 299.234 46.6H261.954C261.874 47.16 261.874 47.8 261.874 48.36C261.874 54.44 265.474 57.8 271.394 57.8C276.194 57.8 280.034 55.48 282.434 50.28H297.954C293.474 61.88 283.234 68.36 270.354 68.36ZM275.154 31.24C270.594 31.24 266.354 33.88 263.954 39.24H284.834C284.674 34.36 280.514 31.24 275.154 31.24ZM316.29 67.96C307.65 67.96 300.21 63.88 300.21 55.96C300.21 44.6 311.89 42.44 324.45 40.76C335.01 39.32 338.05 38.12 338.05 35.08C338.05 32.76 334.85 31.32 330.77 31.32C325.65 31.32 321.41 33.48 319.73 37.96H304.85C308.53 27.24 319.33 21.16 331.73 21.16C346.93 21.16 355.97 27.64 353.09 41.08L347.65 67H331.57L332.53 62.52C327.97 66.12 322.13 67.96 316.29 67.96ZM316.13 54.76C316.13 57.32 318.77 58.6 322.53 58.6C326.85 58.6 331.25 56.92 334.21 54.52L335.97 46.28L336.05 46.12C333.65 47.32 330.37 48.04 327.01 48.6C319.49 49.96 316.13 50.84 316.13 54.76ZM352.91 67L362.43 22.36H378.75L377.71 27.32C381.71 23.48 386.75 21.32 392.43 21.32C398.99 21.32 404.03 24.28 406.35 29.08C410.99 24.12 416.91 21.32 423.79 21.32C434.99 21.32 442.03 28.92 439.71 39.88L433.95 67H417.63L423.07 41.24C424.27 35.8 421.07 32.44 416.19 32.44C412.91 32.44 410.11 33.8 407.71 36.12C407.71 37.32 407.55 38.52 407.31 39.72L401.55 67H385.31L390.83 41.24C391.95 35.88 389.07 32.52 384.19 32.52C381.07 32.52 378.03 33.88 375.87 36.04L369.31 67H352.91ZM439.004 67L448.524 22.36H464.924L463.884 27.4C467.964 23.56 473.164 21.32 479.004 21.32C490.364 21.32 497.244 29.64 495.004 40.2L489.324 67H472.844L478.284 41.56C479.404 36.04 476.604 32.52 470.844 32.52C467.484 32.52 464.284 33.96 462.044 36.12L455.484 67H439.004ZM521.917 68.36C507.437 68.36 497.837 60.12 497.837 47.88C497.837 46.36 497.997 44.68 498.317 43C501.037 29.56 512.717 21 527.517 21C541.597 21 551.437 28.76 551.437 40.84C551.437 42.84 551.197 44.6 550.797 46.6H513.517C513.437 47.16 513.437 47.8 513.437 48.36C513.437 54.44 517.037 57.8 522.957 57.8C527.757 57.8 531.597 55.48 533.997 50.28H549.517C545.037 61.88 534.797 68.36 521.917 68.36ZM526.717 31.24C522.157 31.24 517.917 33.88 515.517 39.24H536.397C536.237 34.36 532.077 31.24 526.717 31.24ZM573.754 67C565.674 67 561.594 63.48 561.594 57.32C561.594 56.12 561.754 54.92 561.994 53.64L566.474 32.76H553.834L556.074 22.36H568.634L570.634 13.16H586.714L584.794 22.36H600.314L598.074 32.76H582.554L578.634 51.56C578.554 52.04 578.474 52.44 578.474 52.84C578.474 55.24 580.394 56.28 583.674 56.28H593.114L590.794 67H573.754ZM605.025 67L602.385 22.36H617.025L617.105 36.92L617.185 51.56L624.545 36.92L631.905 22.36H645.345L646.465 36.92L647.505 51.56L653.905 36.92L660.305 22.36H675.105L653.585 67H637.025L636.065 53.4L635.265 39.56L628.465 53.4L621.745 67H605.025ZM695.458 68.36C680.898 68.36 670.258 61 670.258 48.12C670.258 46.44 670.418 44.6 670.818 42.68C673.618 28.84 686.098 21 700.258 21C714.738 21 725.458 28.36 725.458 41.16C725.458 42.84 725.218 44.68 724.818 46.6C722.018 60.52 709.538 68.36 695.458 68.36ZM696.018 57.4C701.858 57.4 707.218 53.72 708.978 45.32C709.298 43.96 709.378 42.68 709.378 41.48C709.378 35.4 705.698 32.04 699.698 32.04C693.858 32.04 688.418 35.64 686.658 44.12C686.338 45.48 686.258 46.76 686.258 47.96C686.258 54.04 689.938 57.4 696.018 57.4ZM724.629 67L734.149 22.36H750.549L749.029 29.48C753.269 24.36 758.629 21.48 765.669 21.48C766.389 21.48 767.109 21.48 767.829 21.56L765.029 35.08C763.189 34.52 761.189 34.28 759.109 34.28C754.469 34.28 749.909 35.8 747.029 38.84L741.109 67H724.629ZM762.285 67L774.205 11H790.365L783.805 40.84L805.805 22.36H824.445L802.925 40.04L815.725 67H797.885L790.205 49.72L780.285 57.88L778.445 67H762.285Z" fill="#FE98DB"/>
<path d="M346.025 99.405L351.555 73.47H358.73L358.24 75.85C360.13 73.995 362.58 73.015 365.205 73.015C370.385 73.015 373.675 76.34 373.675 81.31C373.675 82.15 373.605 83.025 373.395 83.97C372.17 89.815 367.76 93.455 362.37 93.455C359.045 93.455 356.56 92.02 355.3 89.57L353.2 99.405H346.025ZM360.76 88.8C363.525 88.8 365.695 86.945 366.43 83.515C366.57 82.885 366.64 82.29 366.64 81.765C366.64 79.14 365.03 77.705 362.335 77.705C359.57 77.705 357.33 79.525 356.63 82.99C356.49 83.585 356.455 84.145 356.455 84.67C356.455 87.33 358.065 88.8 360.76 88.8ZM386.069 93.595C379.699 93.595 375.044 90.375 375.044 84.74C375.044 84.005 375.114 83.2 375.289 82.36C376.514 76.305 381.974 72.875 388.169 72.875C394.504 72.875 399.194 76.095 399.194 81.695C399.194 82.43 399.089 83.235 398.914 84.075C397.689 90.165 392.229 93.595 386.069 93.595ZM386.314 88.8C388.869 88.8 391.214 87.19 391.984 83.515C392.124 82.92 392.159 82.36 392.159 81.835C392.159 79.175 390.549 77.705 387.924 77.705C385.369 77.705 382.989 79.28 382.219 82.99C382.079 83.585 382.044 84.145 382.044 84.67C382.044 87.33 383.654 88.8 386.314 88.8ZM401.739 93L400.584 73.47H406.989L407.024 79.84L407.059 86.245L410.279 79.84L413.499 73.47H419.379L419.869 79.84L420.324 86.245L423.124 79.84L425.924 73.47H432.399L422.984 93H415.739L415.319 87.05L414.969 80.995L411.994 87.05L409.054 93H401.739ZM440.813 93.595C434.478 93.595 430.278 89.99 430.278 84.635C430.278 83.97 430.348 83.235 430.488 82.5C431.678 76.62 436.788 72.875 443.263 72.875C449.423 72.875 453.728 76.27 453.728 81.555C453.728 82.43 453.623 83.2 453.448 84.075H437.138C437.103 84.32 437.103 84.6 437.103 84.845C437.103 87.505 438.678 88.975 441.268 88.975C443.368 88.975 445.048 87.96 446.098 85.685H452.888C450.928 90.76 446.448 93.595 440.813 93.595ZM442.913 77.355C440.918 77.355 439.063 78.51 438.013 80.855H447.148C447.078 78.72 445.258 77.355 442.913 77.355ZM453.382 93L457.547 73.47H464.722L464.057 76.585C465.912 74.345 468.257 73.085 471.337 73.085C471.652 73.085 471.967 73.085 472.282 73.12L471.057 79.035C470.252 78.79 469.377 78.685 468.467 78.685C466.437 78.685 464.442 79.35 463.182 80.68L460.592 93H453.382ZM481.282 93.595C474.947 93.595 470.747 89.99 470.747 84.635C470.747 83.97 470.817 83.235 470.957 82.5C472.147 76.62 477.257 72.875 483.732 72.875C489.892 72.875 494.197 76.27 494.197 81.555C494.197 82.43 494.092 83.2 493.917 84.075H477.607C477.572 84.32 477.572 84.6 477.572 84.845C477.572 87.505 479.147 88.975 481.737 88.975C483.837 88.975 485.517 87.96 486.567 85.685H493.357C491.397 90.76 486.917 93.595 481.282 93.595ZM483.382 77.355C481.387 77.355 479.532 78.51 478.482 80.855H487.617C487.547 78.72 485.727 77.355 483.382 77.355ZM504.03 93.455C498.85 93.455 495.525 90.095 495.525 85.125C495.525 84.285 495.63 83.41 495.805 82.5C497.065 76.655 501.475 73.015 506.865 73.015C510.19 73.015 512.675 74.45 513.935 76.9L515.72 68.5H522.93L517.715 93H510.505L510.995 90.655C509.105 92.475 506.69 93.455 504.03 93.455ZM506.9 88.8C509.665 88.8 511.87 86.945 512.605 83.515C512.71 82.92 512.78 82.36 512.78 81.87C512.78 79.175 511.205 77.705 508.475 77.705C505.71 77.705 503.54 79.525 502.805 82.99C502.665 83.62 502.63 84.18 502.63 84.705C502.63 87.33 504.17 88.8 506.9 88.8ZM527.825 93L533.04 68.5H540.215L538.64 75.885C540.53 73.995 542.98 73.015 545.64 73.015C550.82 73.015 554.11 76.34 554.11 81.31C554.11 82.15 554.04 83.025 553.83 83.97C552.605 89.815 548.195 93.455 542.805 93.455C539.48 93.455 536.995 92.02 535.735 89.57L535 93H527.825ZM541.195 88.8C543.96 88.8 546.13 86.945 546.865 83.515C547.005 82.885 547.075 82.29 547.075 81.765C547.075 79.14 545.465 77.705 542.77 77.705C540.005 77.705 537.765 79.525 537.065 82.99C536.925 83.585 536.89 84.145 536.89 84.67C536.89 87.33 538.5 88.8 541.195 88.8ZM552.349 99.405L553.329 94.645H557.179C558.194 94.645 558.929 94.33 559.699 93.56L554.519 73.47H561.764L564.599 86L572.404 73.47H579.964L565.754 95.1C563.829 97.9 561.554 99.405 558.299 99.405H552.349ZM777.296 93L778.556 87.05H785.871L784.611 93H777.296ZM794.264 93.42C790.484 93.42 787.229 91.635 787.229 88.17C787.229 83.2 792.339 82.255 797.834 81.52C802.454 80.89 803.784 80.365 803.784 79.035C803.784 78.02 802.384 77.39 800.599 77.39C798.359 77.39 796.504 78.335 795.769 80.295H789.259C790.869 75.605 795.594 72.945 801.019 72.945C807.669 72.945 811.624 75.78 810.364 81.66L807.984 93H800.949L801.369 91.04C799.374 92.615 796.819 93.42 794.264 93.42ZM794.194 87.645C794.194 88.765 795.349 89.325 796.994 89.325C798.884 89.325 800.809 88.59 802.104 87.54L802.874 83.935L802.909 83.865C801.859 84.39 800.424 84.705 798.954 84.95C795.664 85.545 794.194 85.93 794.194 87.645ZM814.766 72.07L815.711 67.625H822.851L821.906 72.07H814.766ZM810.321 93L814.451 73.47H821.591L817.461 93H810.321Z" fill="#1a0e15"/>
<path d="M597.265 93.595C590.895 93.595 586.24 90.375 586.24 84.74C586.24 84.005 586.31 83.2 586.485 82.36C587.71 76.305 593.17 72.875 599.365 72.875C605.7 72.875 610.39 76.095 610.39 81.695C610.39 82.43 610.285 83.235 610.11 84.075C608.885 90.165 603.425 93.595 597.265 93.595ZM597.51 88.8C600.065 88.8 602.41 87.19 603.18 83.515C603.32 82.92 603.355 82.36 603.355 81.835C603.355 79.175 601.745 77.705 599.12 77.705C596.565 77.705 594.185 79.28 593.415 82.99C593.275 83.585 593.24 84.145 593.24 84.67C593.24 87.33 594.85 88.8 597.51 88.8ZM618.532 93.455C614.157 93.455 611.322 90.69 611.322 86.945C611.322 86.385 611.357 85.825 611.497 85.23L614.017 73.47H621.192L618.812 84.6C618.742 84.95 618.707 85.265 618.707 85.58C618.707 87.435 619.932 88.555 622.102 88.555C623.537 88.555 624.972 87.925 625.952 86.98L628.822 73.47H635.997L631.902 93H624.692L625.147 90.795C623.362 92.475 621.087 93.455 618.532 93.455ZM634.158 93L638.323 73.47H645.498L644.833 76.585C646.688 74.345 649.033 73.085 652.113 73.085C652.428 73.085 652.743 73.085 653.058 73.12L651.833 79.035C651.028 78.79 650.153 78.685 649.243 78.685C647.213 78.685 645.218 79.35 643.958 80.68L641.368 93H634.158ZM659.958 93.455C654.778 93.455 651.453 90.095 651.453 85.125C651.453 84.285 651.558 83.41 651.733 82.5C652.993 76.655 657.403 73.015 662.793 73.015C666.118 73.015 668.603 74.45 669.863 76.9L671.648 68.5H678.858L673.643 93H666.433L666.923 90.655C665.033 92.475 662.618 93.455 659.958 93.455ZM662.828 88.8C665.593 88.8 667.798 86.945 668.533 83.515C668.638 82.92 668.708 82.36 668.708 81.87C668.708 79.175 667.133 77.705 664.403 77.705C661.638 77.705 659.468 79.525 658.733 82.99C658.593 83.62 658.558 84.18 658.558 84.705C658.558 87.33 660.098 88.8 662.828 88.8ZM675.891 93L680.056 73.47H687.231L686.566 76.585C688.421 74.345 690.766 73.085 693.846 73.085C694.161 73.085 694.476 73.085 694.791 73.12L693.566 79.035C692.761 78.79 691.886 78.685 690.976 78.685C688.946 78.685 686.951 79.35 685.691 80.68L683.101 93H675.891ZM703.792 93.595C697.457 93.595 693.257 89.99 693.257 84.635C693.257 83.97 693.327 83.235 693.467 82.5C694.657 76.62 699.767 72.875 706.242 72.875C712.402 72.875 716.707 76.27 716.707 81.555C716.707 82.43 716.602 83.2 716.427 84.075H700.117C700.082 84.32 700.082 84.6 700.082 84.845C700.082 87.505 701.657 88.975 704.247 88.975C706.347 88.975 708.027 87.96 709.077 85.685H715.867C713.907 90.76 709.427 93.595 703.792 93.595ZM705.892 77.355C703.897 77.355 702.042 78.51 700.992 80.855H710.127C710.057 78.72 708.237 77.355 705.892 77.355ZM723.888 93.42C720.108 93.42 716.853 91.635 716.853 88.17C716.853 83.2 721.963 82.255 727.458 81.52C732.078 80.89 733.408 80.365 733.408 79.035C733.408 78.02 732.008 77.39 730.223 77.39C727.983 77.39 726.128 78.335 725.393 80.295H718.883C720.493 75.605 725.218 72.945 730.643 72.945C737.293 72.945 741.248 75.78 739.988 81.66L737.608 93H730.573L730.993 91.04C728.998 92.615 726.443 93.42 723.888 93.42ZM723.818 87.645C723.818 88.765 724.973 89.325 726.618 89.325C728.508 89.325 730.433 88.59 731.728 87.54L732.498 83.935L732.533 83.865C731.483 84.39 730.048 84.705 728.578 84.95C725.288 85.545 723.818 85.93 723.818 87.645ZM739.91 93L744.075 73.47H751.215L750.76 75.64C752.51 73.96 754.715 73.015 757.2 73.015C760.07 73.015 762.275 74.31 763.29 76.41C765.32 74.24 767.91 73.015 770.92 73.015C775.82 73.015 778.9 76.34 777.885 81.135L775.365 93H768.225L770.605 81.73C771.13 79.35 769.73 77.88 767.595 77.88C766.16 77.88 764.935 78.475 763.885 79.49C763.885 80.015 763.815 80.54 763.71 81.065L761.19 93H754.085L756.5 81.73C756.99 79.385 755.73 77.915 753.595 77.915C752.23 77.915 750.9 78.51 749.955 79.455L747.085 93H739.91Z" fill="#FE98DB"/>
</svg>
